<svg xmlns="http://www.w3.org/2000/svg" viewBox="0 0 39.57 39.57"><defs><style>.cls-1{fill:#ffc107;}.cls-2{fill:#333;}.cls-3{fill:#fff;}.cls-4{fill:none;stroke:#666;stroke-linecap:round;stroke-miterlimit:10;}</style></defs><title>자산 7</title><g id="레이어_2" data-name="레이어 2"><g id="레이어_1-2" data-name="레이어 1"><rect class="cls-1" width="39.57" height="39.57" rx="7.86"/><circle class="cls-2" cx="30.48" cy="11.91" r="3.79"/><circle class="cls-2" cx="8.23" cy="13.49" r="3.79"/><ellipse class="cls-3" cx="19.98" cy="20.89" rx="15.54" ry="13.01"/><ellipse class="cls-2" cx="11.98" cy="17.28" rx="4.09" ry="3.19" transform="translate(-8.3 11.71) rotate(-39.91)"/><ellipse class="cls-2" cx="23.77" cy="17.28" rx="3.19" ry="4.09" transform="translate(-4.74 24.42) rotate(-50.09)"/><path class="cls-4" d="M16.71,22.17A1.83,1.83,0,0,1,15,23.7c-1,0-1.73-.49-1.73-1.1"/><path class="cls-4" d="M20.19,22.6c0,.61-.78,1.1-1.74,1.1a1.83,1.83,0,0,1-1.74-1.53"/><path class="cls-2" d="M14.47,20.13a.57.57,0,0,1,.25-.69,3.71,3.71,0,0,1,1.93-.54,3.8,3.8,0,0,1,2.08.62.59.59,0,0,1,.23.69,3.77,3.77,0,0,1-2,2.11.56.56,0,0,1-.44,0A3.66,3.66,0,0,1,14.47,20.13Z"/></g></g></svg>