<svg xmlns="http://www.w3.org/2000/svg" viewBox="0 0 194.29 39.57"><defs><style>.cls-1{fill:#333;}.cls-2{fill:#ffc107;}.cls-3{fill:#fff;}.cls-4{fill:none;stroke:#666;stroke-linecap:round;stroke-miterlimit:10;}</style></defs><title>자산 1</title><g id="레이어_2" data-name="레이어 2"><g id="레이어_1-2" data-name="레이어 1"><path class="cls-1" d="M54,28.19H49.12a1,1,0,0,1-.66-.17.81.81,0,0,1-.2-.66V23.47a.81.81,0,0,1,.2-.66,1,1,0,0,1,.66-.17h28a1,1,0,0,1,.66.17.85.85,0,0,1,.2.66v3.89a.85.85,0,0,1-.2.66,1,1,0,0,1-.66.17H72.31v6.44a.89.89,0,0,1-.2.67,1.08,1.08,0,0,1-.67.16H66.79a1,1,0,0,1-.66-.16.89.89,0,0,1-.2-.67V28.19H54Zm22-10c.05.34,0,.55-.16.64a2.49,2.49,0,0,1-.7.2c-1.53.15-3.1.28-4.72.39s-3.23.21-4.85.29-3.2.13-4.77.16-3,.05-4.47.05q-3.18,0-4.56-1.71t-1.38-5.46V4.77c0-.34.06-.56.2-.67a1,1,0,0,1,.66-.16h4.65a1.08,1.08,0,0,1,.67.16.86.86,0,0,1,.2.67v7.31a2.59,2.59,0,0,0,.5,1.76,2.31,2.31,0,0,0,1.82.53q3.63-.07,7.71-.27t8-.63c.31,0,.52,0,.63.13a1.43,1.43,0,0,1,.23.7Z"/><path class="cls-1" d="M79.82,29.78a.81.81,0,0,1,.2-.66,1,1,0,0,1,.66-.17h28a1,1,0,0,1,.66.17.85.85,0,0,1,.2.66v3.89a.85.85,0,0,1-.2.66,1,1,0,0,1-.66.17h-28a1,1,0,0,1-.66-.17.81.81,0,0,1-.2-.66Zm3.12-5.21h-.32a.81.81,0,0,1-.36-.1.86.86,0,0,1-.3-.3,1.12,1.12,0,0,1-.12-.57V19.72a1.6,1.6,0,0,1,.13-.8.94.94,0,0,1,.6-.23,15.07,15.07,0,0,0,3.87-.9,9.44,9.44,0,0,0,2.81-1.65,6.38,6.38,0,0,0,1.69-2.22,6.27,6.27,0,0,0,.57-2.64V4.77a.86.86,0,0,1,.2-.67,1,1,0,0,1,.66-.16H97a1,1,0,0,1,.67.16.86.86,0,0,1,.2.67v6.51a6.23,6.23,0,0,0,2.26,4.86,9.51,9.51,0,0,0,2.8,1.65,15.07,15.07,0,0,0,3.87.9.92.92,0,0,1,.6.23,1.5,1.5,0,0,1,.13.8V23.6a1.13,1.13,0,0,1-.11.57.86.86,0,0,1-.3.3.82.82,0,0,1-.37.1h-.31a23.17,23.17,0,0,1-4-.72,20.75,20.75,0,0,1-3.37-1.23A14.54,14.54,0,0,1,96.49,21a9.42,9.42,0,0,1-1.79-1.78A9.21,9.21,0,0,1,92.9,21a13.67,13.67,0,0,1-2.65,1.59,21.1,21.1,0,0,1-3.37,1.23A22.75,22.75,0,0,1,82.94,24.57Z"/><path class="cls-1" d="M132,16.83c0-.34.06-.56.2-.67a1,1,0,0,1,.66-.16h9.4c.11-.85.2-1.65.25-2.41s.08-1.47.08-2.11a2.48,2.48,0,0,0-.36-1.63A1.7,1.7,0,0,0,141,9.48H132.9a1,1,0,0,1-.66-.16c-.14-.11-.2-.33-.2-.67V4.77c0-.34.06-.56.2-.67a1,1,0,0,1,.66-.16h11.46a6.87,6.87,0,0,1,2.16.3,3.14,3.14,0,0,1,1.48,1A4.06,4.06,0,0,1,148.83,7a10.8,10.8,0,0,1,.22,2.64c0,1.5-.14,3.21-.35,5.11s-.49,3.9-.82,6-.71,4.19-1.14,6.33-.88,4.18-1.35,6.13a3.31,3.31,0,0,1-.26.71q-.13.23-.6.12l-4.62-1a2.26,2.26,0,0,1-.41-.09.64.64,0,0,1-.32-.18.51.51,0,0,1-.15-.35,2.3,2.3,0,0,1,.08-.61c.45-1.6.87-3.27,1.26-5s.76-3.51,1.07-5.24H132.9a1,1,0,0,1-.66-.16.84.84,0,0,1-.2-.67Zm22.65,18a1,1,0,0,1-.66-.17.85.85,0,0,1-.2-.66V4.77a.86.86,0,0,1,.2-.67,1,1,0,0,1,.66-.16h4.65a1.08,1.08,0,0,1,.67.16.86.86,0,0,1,.2.67V34a.85.85,0,0,1-.2.66,1,1,0,0,1-.67.17Z"/><path class="cls-1" d="M164.53,29.78a.81.81,0,0,1,.2-.66,1,1,0,0,1,.66-.17h28a1,1,0,0,1,.66.17.85.85,0,0,1,.2.66v3.89a.85.85,0,0,1-.2.66,1,1,0,0,1-.66.17h-28a1,1,0,0,1-.66-.17.81.81,0,0,1-.2-.66Zm2.25-25a.86.86,0,0,1,.2-.67,1.08,1.08,0,0,1,.67-.16h23.48a1,1,0,0,1,.67.16.86.86,0,0,1,.2.67V8.65a.86.86,0,0,1-.2.67,1,1,0,0,1-.67.16H182.6v1.8a6.23,6.23,0,0,0,2.26,4.86,9.51,9.51,0,0,0,2.8,1.65,15.06,15.06,0,0,0,3.88.9.91.91,0,0,1,.59.23,1.5,1.5,0,0,1,.13.8V23.6a1.13,1.13,0,0,1-.11.57.86.86,0,0,1-.3.3.82.82,0,0,1-.37.1h-.31a23.35,23.35,0,0,1-4-.72,20.75,20.75,0,0,1-3.37-1.23A14.54,14.54,0,0,1,181.2,21a9.42,9.42,0,0,1-1.79-1.78,9.21,9.21,0,0,1-1.8,1.78A13.67,13.67,0,0,1,175,22.62a21.1,21.1,0,0,1-3.37,1.23,22.75,22.75,0,0,1-3.94.72h-.32a.81.81,0,0,1-.36-.1.86.86,0,0,1-.3-.3,1.12,1.12,0,0,1-.12-.57V19.72a1.6,1.6,0,0,1,.13-.8.94.94,0,0,1,.6-.23,15.07,15.07,0,0,0,3.87-.9A9.44,9.44,0,0,0,174,16.14a6.38,6.38,0,0,0,1.69-2.22,6.27,6.27,0,0,0,.57-2.64V9.48h-8.57a1.08,1.08,0,0,1-.67-.16.86.86,0,0,1-.2-.67Z"/><path class="cls-1" d="M60.89,25.4c-.17,1.08-.39,2.16-.61,3.24-.44,2.13-.88,4.18-1.35,6.12a3.55,3.55,0,0,1-.25.72c-.09.14-.31.19-.61.11l-4.63-.94L53,34.57a1.27,1.27,0,0,1-.31-.2.48.48,0,0,1-.13-.36,1.37,1.37,0,0,1,.08-.61c.44-1.57.86-3.26,1.24-5,.25-1,.45-2,.64-3Z"/><path class="cls-1" d="M114.53,18.25a.85.85,0,0,1,.19-.66,1.08,1.08,0,0,1,.67-.17h10.08a1.07,1.07,0,0,1,.66.17.85.85,0,0,1,.2.66v3.89a.89.89,0,0,1-.2.67,1.07,1.07,0,0,1-.66.16H115.39a1.08,1.08,0,0,1-.67-.16.89.89,0,0,1-.19-.67Z"/><rect class="cls-2" width="39.57" height="39.57" rx="7.86"/><circle class="cls-1" cx="30.48" cy="11.91" r="3.79"/><circle class="cls-1" cx="8.23" cy="13.49" r="3.79"/><ellipse class="cls-3" cx="19.98" cy="20.89" rx="15.54" ry="13.01"/><ellipse class="cls-1" cx="11.98" cy="17.28" rx="4.09" ry="3.19" transform="translate(-8.3 11.71) rotate(-39.91)"/><ellipse class="cls-1" cx="23.77" cy="17.28" rx="3.19" ry="4.09" transform="translate(-4.74 24.42) rotate(-50.09)"/><path class="cls-4" d="M16.71,22.17A1.83,1.83,0,0,1,15,23.7c-1,0-1.73-.49-1.73-1.1"/><path class="cls-4" d="M20.19,22.6c0,.61-.78,1.1-1.74,1.1a1.83,1.83,0,0,1-1.74-1.53"/><path class="cls-1" d="M14.47,20.13a.57.57,0,0,1,.25-.69,3.71,3.71,0,0,1,1.93-.54,3.8,3.8,0,0,1,2.08.62.59.59,0,0,1,.23.69,3.77,3.77,0,0,1-2,2.11.56.56,0,0,1-.44,0A3.66,3.66,0,0,1,14.47,20.13Z"/></g></g></svg>