<svg xmlns="http://www.w3.org/2000/svg" viewBox="0 0 35.71 39.36"><defs><style>.cls-1{fill:#dedede;}.cls-10,.cls-2,.cls-3,.cls-7{fill:#333;}.cls-2,.cls-7{stroke:#333;}.cls-10,.cls-11,.cls-2,.cls-5,.cls-6,.cls-7,.cls-9{stroke-linecap:round;}.cls-2,.cls-4,.cls-5,.cls-6,.cls-9{stroke-miterlimit:10;}.cls-10,.cls-11,.cls-2,.cls-4,.cls-7,.cls-9{stroke-width:0.75px;}.cls-11,.cls-4,.cls-8{fill:#fff;}.cls-10,.cls-11,.cls-4,.cls-9{stroke:#999;}.cls-5{fill:#ff8d8d;}.cls-5,.cls-6{stroke:#666;}.cls-6,.cls-9{fill:none;}.cls-10,.cls-11,.cls-7{stroke-linejoin:round;}</style></defs><title>자산 6</title><g id="레이어_2" data-name="레이어 2"><g id="레이어_1-2" data-name="레이어 1"><ellipse class="cls-1" cx="16.1" cy="38.52" rx="8.09" ry="0.84"/><path class="cls-2" d="M14.57,36.91c0,1.35-.62,1.44-1.39,1.44s-1.39-.09-1.39-1.44.62-3.44,1.39-3.44S14.57,35.56,14.57,36.91Z"/><path class="cls-2" d="M20.14,36.91c0,1.35-.62,1.44-1.39,1.44s-1.39-.09-1.39-1.44.62-3.44,1.39-3.44S20.14,35.56,20.14,36.91Z"/><path class="cls-2" d="M10.16,28.5c-.14,2.33,0,4.24-1.51,4.15S4.6,30.51,4.74,28.18s2.92-4.06,4.42-4S10.3,26.17,10.16,28.5Z"/><circle class="cls-3" cx="26.42" cy="4.41" r="3.79"/><circle class="cls-3" cx="4.16" cy="5.99" r="3.79"/><path class="cls-4" d="M29.33,6.83A14.55,14.55,0,0,0,23.48,2,17.68,17.68,0,0,0,15.92.38,17.42,17.42,0,0,0,6.53,3,13.57,13.57,0,0,0,1.46,8.62v0A11,11,0,0,0,.38,13.39c0,4.87,3.19,9.1,7.91,11.33a18.14,18.14,0,0,0,15.25,0c4.73-2.23,7.92-6.46,7.92-11.33A11.32,11.32,0,0,0,29.33,6.83Zm-19.48,8a1.87,1.87,0,0,0,1.7-1.33s0,0,0,0a1.9,1.9,0,0,0,1.72,1.33C12.12,17.66,10.47,16.72,9.85,14.78Z"/><ellipse class="cls-3" cx="6.85" cy="8.36" rx="4.09" ry="3.19" transform="translate(-3.76 6.34) rotate(-39.91)"/><ellipse class="cls-3" cx="18.63" cy="8.36" rx="3.19" ry="4.09" transform="translate(0.27 17.29) rotate(-50.09)"/><path class="cls-5" d="M13.32,14.78c-1.2,2.88-2.85,1.94-3.47,0a1.87,1.87,0,0,0,1.7-1.33s0,0,0,0A1.9,1.9,0,0,0,13.32,14.78Z"/><path class="cls-6" d="M9.85,14.78c-1,0-1.74-.49-1.74-1.11"/><path class="cls-6" d="M11.58,13.25a1.5,1.5,0,0,1,0,.2"/><path class="cls-6" d="M11.6,13.45a1.5,1.5,0,0,1,0-.2"/><path class="cls-6" d="M15.06,13.67c0,.62-.78,1.11-1.74,1.11"/><path class="cls-3" d="M13.83,11.28a3.8,3.8,0,0,1-2,2.12.73.73,0,0,1-.2,0s0,0,0,0l-.19,0a3.72,3.72,0,0,1-2-2.2.57.57,0,0,1,.25-.69A3.59,3.59,0,0,1,11.52,10a3.85,3.85,0,0,1,2.08.62A.59.59,0,0,1,13.83,11.28Z"/><path class="cls-7" d="M35.34,17c.09,5.89-1.51,8.89-5.3,10.69a9.64,9.64,0,0,1-5.75.67c0,.29,0,.59,0,.89a8.33,8.33,0,0,1-.55,3.12,10.75,10.75,0,0,0-8.15-3.94,11.25,11.25,0,0,0-8,2.34,8,8,0,0,1-.12-1.52,14.89,14.89,0,0,1,.77-4.56,18.14,18.14,0,0,0,15.25,0C24,24.53,29.07,22,27,14.2c-1.78-6.58.71-6.34,2.43-3.34C30.77,10.54,35.23,11.15,35.34,17Z"/><path class="cls-8" d="M23.77,32.4c-1.2,3-4.26,4-7.85,4-4.18,0-7.63-1.45-8.28-5.63a11.25,11.25,0,0,1,8-2.34A10.75,10.75,0,0,1,23.77,32.4Z"/><path class="cls-9" d="M29.4,13.36c.58-.34,2.68-.55,2.28.62a3,3,0,0,1-1.79,1.6"/><path class="cls-10" d="M7.4,26.4c.13-.55.32-1.11.57-1.86"/><path class="cls-11" d="M23.77,32.79c-1.2,3-4.26,4-7.85,4-4.18,0-7.63-1.45-8.28-5.63"/></g></g></svg>